<svg width="300" height="200" viewBox="0 0 300 200" fill="none" xmlns="http://www.w3.org/2000/svg">
<path d="M145 114.54H154.5C154.139 111.814 155.041 109.533 157.204 107.697C159.688 105.651 162.637 106.109 164.22 106.816C165.804 107.522 166.98 108.492 167.796 110.323C168.141 111.094 168.376 111.746 168.5 112.28" stroke="#C2E8FF" stroke-width="3" stroke-linecap="round"/>
<path d="M164.5 116.047C165.028 114.212 166.111 113.012 167.75 112.447C170.209 111.6 172.54 112.728 173.471 113.863C174.402 114.998 174.698 115.91 174.873 116.861C174.99 117.496 175.033 118.229 175 119.062H177.082C179.018 119.578 179.994 120.73 180.008 122.517C180.032 125.706 177.695 126.5 176.5 126.5H137" stroke="#C2E8FF" stroke-width="3" stroke-linecap="round"/>
<path d="M132 120.5H164.5" stroke="#C2E8FF" stroke-width="3" stroke-linecap="round"/>
<path d="M123 120.5H127" stroke="#C2E8FF" stroke-width="3" stroke-linecap="round"/>
<path d="M96 87.5403H105.5C105.139 84.8136 106.041 82.5326 108.204 80.6972C110.688 78.6506 113.637 79.1094 115.22 79.8156C116.804 80.5218 117.98 81.4921 118.796 83.323C119.141 84.0939 119.376 84.7461 119.5 85.2796" stroke="#C2E8FF" stroke-width="3" stroke-linecap="round"/>
<path d="M115.5 89.0474C116.028 87.2118 117.111 86.0117 118.75 85.447C121.209 84.6 123.54 85.728 124.471 86.863C125.402 87.998 125.698 88.9098 125.873 89.8613C125.99 90.4956 126.033 91.2291 126 92.0616H128.082C130.018 92.5783 130.994 93.73 131.008 95.5166C131.032 98.7063 128.695 99.5 127.5 99.5H88" stroke="#C2E8FF" stroke-width="3" stroke-linecap="round"/>
<path d="M83 93.5H115.5" stroke="#C2E8FF" stroke-width="3" stroke-linecap="round"/>
<path d="M74 93.5H78" stroke="#C2E8FF" stroke-width="3" stroke-linecap="round"/>
<path d="M42 152.5H267" stroke="#C2E8FF" stroke-width="3" stroke-linecap="round"/>
<path d="M34 152.5H37" stroke="#C2E8FF" stroke-width="3" stroke-linecap="round"/>
<path d="M152.25 151.967L174.5 133.882L191.5 146.943" stroke="#C2E8FF" stroke-width="3" stroke-linecap="round" stroke-linejoin="round"/>
<path d="M174.5 134.384V151.464" stroke="#C2E8FF" stroke-width="3" stroke-linecap="round" stroke-linejoin="round"/>
<path fill-rule="evenodd" clip-rule="evenodd" d="M191.75 139.408C191.75 144.303 191.75 146.814 191.75 146.943C191.75 146.814 191.75 144.303 191.75 139.408Z" stroke="#C2E8FF" stroke-width="3" stroke-linecap="round" stroke-linejoin="round"/>
<path d="M186.75 142.422L191.75 138.403L208.75 151.967" stroke="#C2E8FF" stroke-width="3" stroke-linecap="round" stroke-linejoin="round"/>
<path fill-rule="evenodd" clip-rule="evenodd" d="M86.5 128.5V104C86.5 100.686 89.1863 98 92.5 98C95.8137 98 98.5 100.686 98.5 104V119.5H106.5V112.763C106.5 110.554 108.291 108.763 110.5 108.763C112.709 108.763 114.5 110.554 114.5 112.763V124.5C114.5 126.157 113.157 127.5 111.5 127.5H98.5V157.5C98.5 158.052 98.0523 158.5 97.5 158.5H87.5C86.9477 158.5 86.5 158.052 86.5 157.5V136.5H74.5C72.8431 136.5 71.5 135.157 71.5 133.5V118.791C71.5 116.582 73.2909 114.791 75.5 114.791C77.7091 114.791 79.5 116.582 79.5 118.791V128.5H86.5Z" fill="#C2E8FF"/>
<path fill-rule="evenodd" clip-rule="evenodd" d="M95.5 139.5H103.5V135.372C103.5 133.439 105.067 131.872 107 131.872C108.933 131.872 110.5 133.439 110.5 135.372V143.5C110.5 145.157 109.157 146.5 107.5 146.5H95.5" fill="#C2E8FF"/>
<path d="M57 158.5H235" stroke="#8CD3F8" stroke-width="3" stroke-linecap="round"/>
<path d="M240.25 158.5H245.026" stroke="#8CD3F8" stroke-width="3" stroke-linecap="round"/>
<path d="M96 139.496H101" stroke="#8CD3F8" stroke-width="3" stroke-linecap="round"/>
<path d="M96 146.496H101" stroke="#8CD3F8" stroke-width="3" stroke-linecap="round"/>
<path fill-rule="evenodd" clip-rule="evenodd" d="M98.5 139.5V127.5H111.5C113.157 127.5 114.5 126.157 114.5 124.5V112.763C114.5 110.554 112.709 108.763 110.5 108.763C108.291 108.763 106.5 110.554 106.5 112.763V119.5H98.5V104C98.5 100.686 95.8137 98 92.5 98C89.1863 98 86.5 100.686 86.5 104V128.5H79.5V118.791C79.5 116.582 77.7091 114.791 75.5 114.791C73.2909 114.791 71.5 116.582 71.5 118.791V133.5C71.5 135.157 72.8431 136.5 74.5 136.5H86.5V157.5C86.5 158.052 86.9477 158.5 87.5 158.5H97.5C98.0523 158.5 98.5 158.052 98.5 157.5V146.5H107.5C109.157 146.5 110.5 145.157 110.5 143.5V135.372C110.5 133.439 108.933 131.872 107 131.872C105.067 131.872 103.5 133.439 103.5 135.372V139.5H98.5Z" stroke="#8CD3F8" stroke-width="3"/>
<path d="M96.5 98.5527L99.3284 95.7109" stroke="#8CD3F8" stroke-width="3" stroke-linecap="round"/>
<path d="M88.3284 98.5527L85.4999 95.7109" stroke="#8CD3F8" stroke-width="3" stroke-linecap="round"/>
<path d="M92.5 93.199V97.218" stroke="#8CD3F8" stroke-width="3" stroke-linecap="round"/>
<path d="M110.5 104.744V108.763" stroke="#8CD3F8" stroke-width="3" stroke-linecap="round"/>
<path d="M113.5 109.098L116.328 106.256" stroke="#8CD3F8" stroke-width="3" stroke-linecap="round"/>
<path d="M75.5 110.773V114.791" stroke="#8CD3F8" stroke-width="3" stroke-linecap="round"/>
<path d="M79 116.126L81.8284 113.284" stroke="#8CD3F8" stroke-width="3" stroke-linecap="round"/>
<path d="M72.3284 116.126L69.4999 113.284" stroke="#8CD3F8" stroke-width="3" stroke-linecap="round"/>
<path d="M221.5 128.858V151.967" stroke="#C2E8FF" stroke-width="3" stroke-linecap="round"/>
<path d="M220.5 136.5H215.5V127" stroke="#C2E8FF" stroke-width="3" stroke-linecap="round" stroke-linejoin="round"/>
<path d="M222 139.5H227.5V131" stroke="#C2E8FF" stroke-width="3" stroke-linecap="round" stroke-linejoin="round"/>
<path d="M216.5 142.5V146.5H220.5" stroke="#C2E8FF" stroke-width="3" stroke-linecap="round" stroke-linejoin="round"/>
<path fill-rule="evenodd" clip-rule="evenodd" d="M213.098 70.236C205.111 60.7168 190.882 59.5059 181.318 67.5313C171.753 75.5567 170.475 89.7794 178.463 99.2985C186.45 108.818 200.679 110.029 210.243 102.003C219.807 93.9779 221.086 79.7552 213.098 70.236Z" stroke="#C2E8FF" stroke-width="3" stroke-linecap="round" stroke-linejoin="round" stroke-dasharray="67.5 0.5 0.5 9"/>
<path fill-rule="evenodd" clip-rule="evenodd" d="M187.289 70.25C179.398 74.8064 176.711 84.9279 181.289 92.8572C185.867 100.786 195.976 103.521 203.868 98.9643C211.759 94.4079 214.446 84.2864 209.868 76.3572C205.29 68.4279 195.181 65.6937 187.289 70.25Z" stroke="#C2E8FF" stroke-width="3" stroke-linecap="round" stroke-linejoin="round" stroke-dasharray="53.5 5"/>
<path d="M195.5 95.6185C201.575 95.6185 206.5 90.6671 206.5 84.5592C206.5 78.4514 201.575 73.5 195.5 73.5C189.425 73.5 184.5 78.4514 184.5 84.5592C184.5 90.6671 189.425 95.6185 195.5 95.6185Z" fill="#C2E8FF" stroke="#8CD3F8" stroke-width="3"/>
<path d="M69.2578 188H70.4746V180.351H71.1035L70.2832 179.92L75.9365 188H77.1328V178.136H75.916V185.812H75.2871L76.1074 186.243L70.4541 178.136H69.2578V188ZM83.791 188.232C84.7298 188.232 85.5365 188.021 86.2109 187.597C86.89 187.173 87.4095 186.576 87.7695 185.806C88.1341 185.031 88.3164 184.119 88.3164 183.071V183.058C88.3164 182.005 88.1341 181.093 87.7695 180.323C87.4049 179.549 86.8831 178.951 86.2041 178.532C85.5296 178.113 84.7253 177.903 83.791 177.903C82.8613 177.903 82.057 178.113 81.3779 178.532C80.7035 178.951 80.1816 179.546 79.8125 180.316C79.4479 181.087 79.2656 182 79.2656 183.058V183.071C79.2656 184.119 79.4456 185.031 79.8057 185.806C80.1702 186.58 80.6898 187.18 81.3643 187.604C82.0387 188.023 82.8477 188.232 83.791 188.232ZM83.791 187.098C83.1074 187.098 82.5218 186.931 82.0342 186.599C81.5465 186.266 81.1729 185.799 80.9131 185.197C80.6533 184.591 80.5234 183.882 80.5234 183.071V183.058C80.5234 182.237 80.6556 181.526 80.9199 180.925C81.1888 180.323 81.5671 179.858 82.0547 179.53C82.5423 179.202 83.1211 179.038 83.791 179.038C84.4655 179.038 85.0465 179.202 85.5342 179.53C86.0218 179.858 86.3978 180.323 86.6621 180.925C86.9264 181.526 87.0586 182.237 87.0586 183.058V183.071C87.0586 183.882 86.9264 184.591 86.6621 185.197C86.3978 185.799 86.0218 186.266 85.5342 186.599C85.0465 186.931 84.4655 187.098 83.791 187.098ZM96.4307 188H97.5928L99.8623 180.214H99.9443L102.214 188H103.376L106.062 178.136H104.777L102.815 186.154H102.733L100.525 178.136H99.2812L97.0732 186.154H96.9912L95.0293 178.136H93.7441L96.4307 188ZM107.936 188H109.166V178.136H107.936V188ZM111.682 188H115.065C116.045 188 116.882 187.806 117.574 187.419C118.267 187.027 118.798 186.464 119.167 185.73C119.536 184.992 119.721 184.106 119.721 183.071V183.058C119.721 182.023 119.536 181.139 119.167 180.405C118.798 179.672 118.265 179.111 117.567 178.724C116.875 178.332 116.041 178.136 115.065 178.136H111.682V188ZM112.912 186.893V179.243H114.983C115.713 179.243 116.337 179.396 116.856 179.701C117.376 180.002 117.772 180.439 118.046 181.014C118.324 181.583 118.463 182.269 118.463 183.071V183.085C118.463 183.882 118.326 184.566 118.053 185.136C117.779 185.705 117.383 186.141 116.863 186.441C116.344 186.742 115.717 186.893 114.983 186.893H112.912ZM125.941 188.232C126.785 188.232 127.518 188.064 128.143 187.727C128.771 187.389 129.259 186.918 129.605 186.312C129.956 185.705 130.132 184.997 130.132 184.186V182.982H126.133V184.062H128.901V184.302C128.901 184.858 128.778 185.345 128.532 185.765C128.286 186.184 127.94 186.512 127.493 186.749C127.051 186.981 126.536 187.098 125.948 187.098C125.287 187.098 124.715 186.936 124.232 186.612C123.754 186.284 123.382 185.819 123.118 185.218C122.858 184.612 122.729 183.896 122.729 183.071V183.058C122.729 182.242 122.861 181.533 123.125 180.932C123.389 180.33 123.761 179.865 124.239 179.537C124.722 179.204 125.29 179.038 125.941 179.038C126.675 179.038 127.286 179.207 127.773 179.544C128.261 179.881 128.605 180.369 128.806 181.007L128.826 181.075H130.07L130.057 181.007C129.929 180.382 129.678 179.838 129.305 179.373C128.936 178.908 128.464 178.548 127.89 178.293C127.32 178.033 126.671 177.903 125.941 177.903C125.044 177.903 124.257 178.118 123.583 178.546C122.913 178.97 122.394 179.569 122.024 180.344C121.655 181.114 121.471 182.019 121.471 183.058V183.071C121.471 184.119 121.653 185.031 122.018 185.806C122.387 186.58 122.906 187.18 123.576 187.604C124.246 188.023 125.035 188.232 125.941 188.232ZM132.312 188H138.424V186.893H133.543V183.502H138.171V182.408H133.543V179.243H138.424V178.136H132.312V188ZM143.216 188H144.446V179.243H147.625V178.136H140.037V179.243H143.216V188ZM152.759 188.232C153.493 188.232 154.133 188.112 154.68 187.87C155.227 187.624 155.65 187.278 155.951 186.831C156.252 186.384 156.402 185.854 156.402 185.238V185.231C156.402 184.521 156.181 183.949 155.739 183.516C155.297 183.083 154.561 182.752 153.531 182.524L152.438 182.278C151.768 182.132 151.287 181.925 150.995 181.656C150.703 181.387 150.558 181.057 150.558 180.665V180.658C150.558 180.312 150.653 180.02 150.845 179.783C151.041 179.542 151.303 179.357 151.631 179.229C151.959 179.102 152.328 179.038 152.738 179.038C153.167 179.034 153.54 179.097 153.859 179.229C154.178 179.362 154.434 179.542 154.625 179.77C154.816 179.993 154.935 180.25 154.98 180.542L154.994 180.631H156.225L156.218 180.535C156.186 180.043 156.02 179.599 155.719 179.202C155.423 178.806 155.021 178.491 154.516 178.259C154.01 178.022 153.429 177.903 152.772 177.903C152.093 177.903 151.492 178.022 150.968 178.259C150.448 178.496 150.04 178.824 149.744 179.243C149.452 179.662 149.304 180.146 149.3 180.692V180.699C149.3 181.415 149.523 182.003 149.97 182.463C150.421 182.919 151.141 183.256 152.13 183.475L153.224 183.714C153.903 183.864 154.393 184.081 154.693 184.363C154.994 184.641 155.145 184.985 155.145 185.396V185.402C155.145 185.735 155.044 186.029 154.844 186.284C154.643 186.539 154.368 186.74 154.017 186.886C153.67 187.027 153.274 187.098 152.827 187.098C152.353 187.098 151.929 187.032 151.556 186.899C151.187 186.767 150.89 186.583 150.667 186.346C150.448 186.104 150.323 185.819 150.291 185.491L150.284 185.416H149.054L149.061 185.491C149.111 186.024 149.291 186.498 149.601 186.913C149.915 187.323 150.339 187.647 150.872 187.884C151.41 188.116 152.039 188.232 152.759 188.232ZM161.604 188H162.896L165.795 179.729H166.185V178.136H165.241L161.604 188ZM163.252 185.177H168.475L168.092 184.131H163.635L163.252 185.177ZM168.803 188H170.095L166.458 178.136H165.904V179.729L168.803 188ZM173.786 188H175.003L178.64 178.136H177.348L174.449 186.407H174.34L171.441 178.136H170.149L173.786 188ZM178.694 188H179.986L182.885 179.729H183.274V178.136H182.331L178.694 188ZM180.342 185.177H185.564L185.182 184.131H180.725L180.342 185.177ZM185.893 188H187.185L183.548 178.136H182.994V179.729L185.893 188ZM188.914 188H190.145V178.136H188.914V188ZM192.66 188H198.648V186.893H193.891V178.136H192.66V188ZM199.831 188H201.123L204.021 179.729H204.411V178.136H203.468L199.831 188ZM201.479 185.177H206.701L206.318 184.131H201.861L201.479 185.177ZM207.029 188H208.321L204.685 178.136H204.131V179.729L207.029 188ZM210.666 188H213.899C214.601 188 215.201 187.891 215.697 187.672C216.194 187.449 216.575 187.132 216.839 186.722C217.108 186.307 217.242 185.812 217.242 185.238V185.225C217.242 184.792 217.151 184.407 216.969 184.069C216.791 183.728 216.538 183.45 216.21 183.235C215.882 183.021 215.492 182.887 215.041 182.832V182.723C215.36 182.663 215.647 182.531 215.902 182.326C216.158 182.121 216.36 181.868 216.511 181.567C216.666 181.267 216.743 180.945 216.743 180.604V180.59C216.743 180.089 216.625 179.656 216.388 179.291C216.155 178.922 215.82 178.637 215.383 178.437C214.95 178.236 214.43 178.136 213.824 178.136H210.666V179.223H213.564C214.175 179.223 214.649 179.362 214.986 179.64C215.328 179.913 215.499 180.3 215.499 180.802V180.815C215.499 181.335 215.31 181.727 214.932 181.991C214.558 182.256 213.997 182.388 213.25 182.388H210.666V183.447H213.599C214.123 183.447 214.56 183.511 214.911 183.639C215.267 183.766 215.533 183.958 215.711 184.213C215.889 184.468 215.978 184.785 215.978 185.163V185.177C215.978 185.742 215.786 186.173 215.403 186.469C215.021 186.765 214.458 186.913 213.715 186.913H210.666V188ZM210.051 188H211.281V178.136H210.051V188ZM219.252 188H225.24V186.893H220.482V178.136H219.252V188ZM227.209 188H233.32V186.893H228.439V183.502H233.067V182.408H228.439V179.243H233.32V178.136H227.209V188Z" fill="black"/>
</svg>
